<svg xmlns="http://www.w3.org/2000/svg" viewBox="0 0 100 100">
  <rect x="15" y="25" width="12" height="55" fill="#f44336"/>
  <polygon points="21,25 15,10 27,10" fill="#f44336"/>
  <rect x="15" y="70" width="12" height="10" fill="#212121"/>
  <rect x="30" y="30" width="12" height="50" fill="#ff9800"/>
  <polygon points="36,30 30,15 42,15" fill="#ff9800"/>
  <rect x="30" y="70" width="12" height="10" fill="#212121"/>
  <rect x="45" y="20" width="12" height="60" fill="#4caf50"/>
  <polygon points="51,20 45,5 57,5" fill="#4caf50"/>
  <rect x="45" y="70" width="12" height="10" fill="#212121"/>
  <rect x="60" y="28" width="12" height="52" fill="#2196f3"/>
  <polygon points="66,28 60,13 72,13" fill="#2196f3"/>
  <rect x="60" y="70" width="12" height="10" fill="#212121"/>
  <rect x="75" y="35" width="12" height="45" fill="#9c27b0"/>
  <polygon points="81,35 75,20 87,20" fill="#9c27b0"/>
  <rect x="75" y="70" width="12" height="10" fill="#212121"/>
</svg>
