<svg xmlns="http://www.w3.org/2000/svg" viewBox="0 0 100 100">
  <circle cx="50" cy="30" r="20" fill="#ffcc80"/>
  <path d="M32 22 Q35 12 50 12 Q65 12 68 22 L65 28 Q50 25 35 28 Z" fill="#4e342e"/>
  <circle cx="43" cy="28" r="3" fill="#3e2723"/>
  <circle cx="57" cy="28" r="3" fill="#3e2723"/>
  <path d="M45 40 Q50 44 55 40" stroke="#3e2723" stroke-width="2" fill="none"/>
  <path d="M35 50 L35 90 L65 90 L65 50 Q50 45 35 50Z" fill="#1565c0"/>
  <path d="M45 50 L50 75 L55 50" fill="#fff"/>
  <rect x="48" y="50" width="4" height="6" fill="#f44336"/>
  <path d="M35 55 L18 72" stroke="#ffcc80" stroke-width="7" stroke-linecap="round"/>
  <path d="M65 55 L82 72" stroke="#ffcc80" stroke-width="7" stroke-linecap="round"/>
</svg>
