<svg xmlns="http://www.w3.org/2000/svg" viewBox="0 0 100 100">
  <circle cx="50" cy="28" r="18" fill="#ffcc80"/>
  <ellipse cx="50" cy="18" rx="20" ry="12" fill="#5d4037"/>
  <path d="M30 22 Q25 30 32 35" fill="#5d4037"/>
  <path d="M70 22 Q75 30 68 35" fill="#5d4037"/>
  <circle cx="44" cy="28" r="3" fill="#3e2723"/>
  <circle cx="56" cy="28" r="3" fill="#3e2723"/>
  <ellipse cx="50" cy="35" rx="4" ry="2" fill="#e57373"/>
  <path d="M35 46 L35 75 Q35 85 50 85 Q65 85 65 75 L65 46 Q50 55 35 46Z" fill="#e91e63"/>
  <path d="M35 50 L20 70" stroke="#ffcc80" stroke-width="6" stroke-linecap="round"/>
  <path d="M65 50 L80 70" stroke="#ffcc80" stroke-width="6" stroke-linecap="round"/>
  <line x1="42" y1="85" x2="42" y2="98" stroke="#ffcc80" stroke-width="6"/>
  <line x1="58" y1="85" x2="58" y2="98" stroke="#ffcc80" stroke-width="6"/>
</svg>
