<svg xmlns="http://www.w3.org/2000/svg" viewBox="0 0 100 100">
  <circle cx="50" cy="32" r="20" fill="#ffcc80"/>
  <path d="M35 20 Q40 15 50 15 Q60 15 65 20 Q60 25 50 25 Q40 25 35 20Z" fill="#9e9e9e"/>
  <ellipse cx="50" cy="18" rx="5" ry="3" fill="#ffe0b2"/>
  <circle cx="43" cy="30" r="3" fill="#3e2723"/>
  <circle cx="57" cy="30" r="3" fill="#3e2723"/>
  <rect x="40" y="27" width="8" height="4" rx="1" fill="#90caf9" stroke="#1565c0" stroke-width="0.5"/>
  <rect x="52" y="27" width="8" height="4" rx="1" fill="#90caf9" stroke="#1565c0" stroke-width="0.5"/>
  <line x1="48" y1="29" x2="52" y2="29" stroke="#1565c0" stroke-width="1"/>
  <path d="M45 42 Q50 46 55 42" stroke="#3e2723" stroke-width="2" fill="none"/>
  <path d="M35 52 L35 90 L65 90 L65 52 Q50 48 35 52Z" fill="#795548"/>
  <path d="M35 58 L18 72" stroke="#ffcc80" stroke-width="6" stroke-linecap="round"/>
  <path d="M65 58 L82 72" stroke="#ffcc80" stroke-width="6" stroke-linecap="round"/>
  <rect x="80" y="65" width="5" height="25" fill="#8d6e63"/>
  <path d="M78 90 Q85 88 92 90" stroke="#8d6e63" stroke-width="3" fill="none"/>
</svg>
