<svg xmlns="http://www.w3.org/2000/svg" viewBox="0 0 100 100">
  <circle cx="50" cy="30" r="20" fill="#ffcc80"/>
  <path d="M30 25 Q30 10 50 10 Q70 10 70 25 Q70 35 60 38 L58 25 Q50 30 42 25 L40 38 Q30 35 30 25Z" fill="#5d4037"/>
  <circle cx="43" cy="28" r="3" fill="#3e2723"/>
  <circle cx="57" cy="28" r="3" fill="#3e2723"/>
  <path d="M45 38 Q50 42 55 38" stroke="#e57373" stroke-width="2" fill="none"/>
  <path d="M35 50 Q50 45 65 50 L65 90 Q50 95 35 90 Z" fill="#e91e63"/>
  <path d="M35 55 L20 70" stroke="#ffcc80" stroke-width="7" stroke-linecap="round"/>
  <path d="M65 55 L80 70" stroke="#ffcc80" stroke-width="7" stroke-linecap="round"/>
  <circle cx="50" cy="60" r="8" fill="#f48fb1"/>
</svg>
