<svg xmlns="http://www.w3.org/2000/svg" viewBox="0 0 100 100">
  <rect x="0" y="0" width="100" height="60" fill="#81d4fa"/>
  <rect x="0" y="60" width="100" height="40" fill="#81c784"/>
  <circle cx="80" cy="25" r="15" fill="#ffeb3b"/>
  <path d="M75 25 L65 25 M85 25 L95 25 M80 15 L80 5 M80 35 L80 45 M72 17 L65 10 M88 17 L95 10 M72 33 L65 40 M88 33 L95 40" stroke="#ffeb3b" stroke-width="3" stroke-linecap="round"/>
  <ellipse cx="25" cy="30" rx="15" ry="10" fill="#fff"/>
  <ellipse cx="35" cy="25" rx="12" ry="8" fill="#fff"/>
  <ellipse cx="45" cy="30" rx="10" ry="7" fill="#fff"/>
  <path d="M10 75 Q15 65 25 75 Q30 65 40 75" stroke="#4caf50" stroke-width="2" fill="none"/>
  <circle cx="20" cy="78" r="3" fill="#e91e63"/>
  <circle cx="35" cy="76" r="3" fill="#ffeb3b"/>
</svg>
