<svg xmlns="http://www.w3.org/2000/svg" viewBox="0 0 100 100">
  <path d="M10 30 L10 50 Q20 50 20 55 Q20 60 10 60 L10 80 L35 80 Q35 70 40 70 Q45 70 45 80 L70 80 L70 60 Q60 60 60 55 Q60 50 70 50 L70 30 L45 30 Q45 40 40 40 Q35 40 35 30 Z" fill="#f44336"/>
  <path d="M70 30 L70 50 Q80 50 80 55 Q80 60 70 60 L70 80 L90 80 L90 30 Z" fill="#2196f3"/>
  <path d="M10 10 L10 30 L35 30 Q35 20 40 20 Q45 20 45 30 L70 30 L70 10 Z" fill="#4caf50"/>
  <path d="M70 10 L70 30 L90 30 L90 10 Z" fill="#ffeb3b"/>
</svg>
