<svg xmlns="http://www.w3.org/2000/svg" viewBox="0 0 100 100">
  <circle cx="50" cy="28" r="18" fill="#ffcc80"/>
  <path d="M32 22 Q35 8 50 8 Q65 8 68 22 Q60 25 50 25 Q40 25 32 22Z" fill="#5d4037"/>
  <circle cx="43" cy="26" r="3" fill="#3e2723"/>
  <circle cx="57" cy="26" r="3" fill="#3e2723"/>
  <rect x="40" cy="26" width="20" height="6" fill="none"/>
  <rect x="38" y="23" width="8" height="4" rx="1" fill="#90caf9" stroke="#1565c0" stroke-width="0.5"/>
  <rect x="54" y="23" width="8" height="4" rx="1" fill="#90caf9" stroke="#1565c0" stroke-width="0.5"/>
  <line x1="46" y1="25" x2="54" y2="25" stroke="#1565c0" stroke-width="1"/>
  <path d="M45 36 Q50 40 55 36" stroke="#3e2723" stroke-width="2" fill="none"/>
  <path d="M35 46 L35 90 L65 90 L65 46 Q50 42 35 46Z" fill="#7b1fa2"/>
  <path d="M35 52 L20 65" stroke="#ffcc80" stroke-width="6" stroke-linecap="round"/>
  <path d="M65 52 L80 65" stroke="#ffcc80" stroke-width="6" stroke-linecap="round"/>
  <rect x="75" y="60" width="15" height="25" fill="#fff" stroke="#e0e0e0" stroke-width="1"/>
  <line x1="78" y1="68" x2="87" y2="68" stroke="#f44336" stroke-width="2"/>
  <line x1="78" y1="73" x2="87" y2="73" stroke="#2196f3" stroke-width="2"/>
  <line x1="78" y1="78" x2="87" y2="78" stroke="#4caf50" stroke-width="2"/>
</svg>
